# xmcd
#
# Track frame offsets: 
#        150
#        14393
#        57966
#        75786
#        88172
#        101910
#        116069
#        141516
#        168019
#        195863
#
# Disc length: 2928 seconds
#
# Revision: 0
# Processed by: cddbd v1.5.2PL0 Copyright (c) Steve Scherf et al.
# Submitted via: ExactAudioCopy v0.99pb4
#
DISCID=780b6e0a
DTITLE=Van Morrison - The Legend
DYEAR=2009
DGENRE=Blues
TTITLE0=Brown Eyed Girl
TTITLE1=T.B. Sheets
TTITLE2=Spanish Rose
TTITLE3=Midnight Special
TTITLE4=Goodbye Baby (Baby Goodbye)
TTITLE5=Ro Ro Rosey
TTITLE6=Who Drove the Red Sports Car
TTITLE7=He Ain't Give You None
TTITLE8=Beside You
TTITLE9=Madame George
EXTD=
EXTT0=
EXTT1=
EXTT2=
EXTT3=
EXTT4=
EXTT5=
EXTT6=
EXTT7=
EXTT8=
EXTT9=
PLAYORDER=
